<svg viewBox="0 0 120 120" fill="none" xmlns="http://www.w3.org/2000/svg">
  <defs>
    <linearGradient id="octo-body" x1="22" y1="18" x2="98" y2="108" gradientUnits="userSpaceOnUse">
      <stop offset="0" stop-color="#ff6a3d"/>
      <stop offset="1" stop-color="#ff3b1f"/>
    </linearGradient>
  </defs>
  <rect x="4" y="4" width="112" height="112" rx="24" fill="#fffdf9" stroke="#f3a35c" stroke-width="6"/>
  <circle cx="60" cy="39" r="26" fill="url(#octo-body)" stroke="#111111" stroke-width="5"/>
  <circle cx="47" cy="57" r="10" fill="#ffffff" stroke="#111111" stroke-width="4"/>
  <circle cx="73" cy="57" r="10" fill="#ffffff" stroke="#111111" stroke-width="4"/>
  <circle cx="50" cy="59" r="5" fill="#111111"/>
  <circle cx="70" cy="59" r="5" fill="#111111"/>
  <circle cx="52" cy="57" r="1.7" fill="#ffffff"/>
  <circle cx="72" cy="57" r="1.7" fill="#ffffff"/>
  <path d="M53 69c2.8 4 11.2 4 14 0" stroke="#111111" stroke-width="4" stroke-linecap="round"/>
  <path d="M39 84c-6 1-12 4-16 8" stroke="#111111" stroke-width="5" stroke-linecap="round"/>
  <path d="M81 84c6 1 12 4 16 8" stroke="#111111" stroke-width="5" stroke-linecap="round"/>
  <path d="M30 72c-9 1-16 7-16 15 0 4 2 7 6 7 6 0 10-7 14-8" fill="url(#octo-body)" stroke="#111111" stroke-width="5" stroke-linecap="round" stroke-linejoin="round"/>
  <path d="M90 72c9 1 16 7 16 15 0 4-2 7-6 7-6 0-10-7-14-8" fill="url(#octo-body)" stroke="#111111" stroke-width="5" stroke-linecap="round" stroke-linejoin="round"/>
  <path d="M40 72c-7 6-12 14-12 22 0 5 3 8 7 8 5 0 8-5 11-9" fill="url(#octo-body)" stroke="#111111" stroke-width="5" stroke-linecap="round" stroke-linejoin="round"/>
  <path d="M80 72c7 6 12 14 12 22 0 5-3 8-7 8-5 0-8-5-11-9" fill="url(#octo-body)" stroke="#111111" stroke-width="5" stroke-linecap="round" stroke-linejoin="round"/>
  <path d="M51 73c-6 8-9 16-9 25 0 6 3 10 8 10 4 0 7-4 10-10" fill="url(#octo-body)" stroke="#111111" stroke-width="5" stroke-linecap="round" stroke-linejoin="round"/>
  <path d="M69 73c6 8 9 16 9 25 0 6-3 10-8 10-4 0-7-4-10-10" fill="url(#octo-body)" stroke="#111111" stroke-width="5" stroke-linecap="round" stroke-linejoin="round"/>
  <circle cx="45" cy="26" r="5" fill="#ffc2a4"/>
  <circle cx="37" cy="34" r="3.5" fill="#ffc2a4"/>
  <circle cx="80" cy="28" r="3.5" fill="#db2d22"/>
  <circle cx="86" cy="36" r="3.5" fill="#db2d22"/>
</svg>
