<svg xmlns="http://www.w3.org/2000/svg" width="64" height="64" viewBox="0 0 16 16" role="img" aria-label="Pixel octopus">
  <rect width="16" height="16" rx="3" fill="#fff7ef"/>
  <path d="M8 2c-2.4 0-4 1.7-4 3.9C4 8 5.6 9 6.6 9.4 5.3 10.1 4 11.2 4 12.4c0 .9.5 1.6 1.2 1.6.8 0 1.3-.8 1.8-1.5.2.9.7 1.5 1 1.5s.8-.6 1-1.5c.5.7 1 1.5 1.8 1.5.7 0 1.2-.7 1.2-1.6 0-1.2-1.3-2.3-2.6-3C10.4 9 12 8 12 5.9 12 3.7 10.4 2 8 2Z" fill="#ff532f" stroke="#111" stroke-width=".45" stroke-linejoin="round"/>
  <circle cx="6.4" cy="6.1" r="1.1" fill="#fff"/>
  <circle cx="9.6" cy="6.1" r="1.1" fill="#fff"/>
  <circle cx="6.7" cy="6.2" r=".55" fill="#111"/>
  <circle cx="9.3" cy="6.2" r=".55" fill="#111"/>
  <path d="M6.9 7.6c.4.4 1.8.4 2.2 0" stroke="#111" stroke-width=".4" stroke-linecap="round"/>
</svg>
